G04*
G04 #@! TF.GenerationSoftware,Altium Limited,Altium Designer,24.6.1 (21)*
G04*
G04 Layer_Color=8421504*
%FSLAX44Y44*%
%MOMM*%
G71*
G04*
G04 #@! TF.SameCoordinates,4D0109AF-B27D-4A28-B854-C6E4DC42B7D3*
G04*
G04*
G04 #@! TF.FilePolarity,Positive*
G04*
G01*
G75*
%ADD13R,1.8000X1.4000*%
%ADD14R,1.0000X0.9000*%
%ADD15R,0.5665X0.5725*%
%ADD16R,1.0121X1.1587*%
%ADD17R,0.8581X1.5621*%
%ADD18R,1.6621X1.0581*%
%ADD19R,1.4000X0.9500*%
%ADD20R,0.7000X1.3000*%
%ADD21O,0.7000X2.5000*%
%ADD22R,0.5725X0.5665*%
%ADD23R,1.3000X0.7000*%
D13*
X398780Y353360D02*
D03*
Y327360D02*
D03*
Y262290D02*
D03*
Y288290D02*
D03*
X284480Y144780D02*
D03*
Y118780D02*
D03*
D14*
X270620Y368300D02*
D03*
X252620D02*
D03*
D15*
X136610Y285750D02*
D03*
X127550D02*
D03*
X232410Y199390D02*
D03*
X241470D02*
D03*
D16*
X440690Y328283D02*
D03*
Y344817D02*
D03*
Y287667D02*
D03*
Y271133D02*
D03*
X316230Y126353D02*
D03*
Y142887D02*
D03*
D17*
X353760Y88900D02*
D03*
X380300D02*
D03*
D18*
X379730Y117810D02*
D03*
Y146350D02*
D03*
D19*
X481330Y328570D02*
D03*
Y347070D02*
D03*
Y288650D02*
D03*
Y270150D02*
D03*
X346710Y129180D02*
D03*
Y147680D02*
D03*
D20*
X272390Y320610D02*
D03*
X262890D02*
D03*
X253390D02*
D03*
Y296610D02*
D03*
X272390D02*
D03*
D21*
X313690Y266330D02*
D03*
X326390D02*
D03*
X339090D02*
D03*
X351790D02*
D03*
X313690Y315330D02*
D03*
X326390D02*
D03*
X339090D02*
D03*
X351790D02*
D03*
D22*
X201930Y165820D02*
D03*
Y156760D02*
D03*
D23*
X222250Y175210D02*
D03*
Y165710D02*
D03*
Y156210D02*
D03*
X246250D02*
D03*
Y175210D02*
D03*
M02*
