G04*
G04 #@! TF.GenerationSoftware,Altium Limited,Altium Designer,24.6.1 (21)*
G04*
G04 Layer_Color=2752767*
%FSLAX44Y44*%
%MOMM*%
G71*
G04*
G04 #@! TF.SameCoordinates,4D0109AF-B27D-4A28-B854-C6E4DC42B7D3*
G04*
G04*
G04 #@! TF.FilePolarity,Positive*
G04*
G01*
G75*
%ADD42C,0.1693*%
%ADD43C,0.1270*%
D42*
X558800Y353060D02*
G03*
X558800Y353060I-5080J0D01*
G01*
Y327660D02*
G03*
X558800Y327660I-5080J0D01*
G01*
Y302260D02*
G03*
X558800Y302260I-5080J0D01*
G01*
Y276860D02*
G03*
X558800Y276860I-5080J0D01*
G01*
Y251460D02*
G03*
X558800Y251460I-5080J0D01*
G01*
X83820Y312420D02*
G03*
X83820Y312420I-5080J0D01*
G01*
Y287020D02*
G03*
X83820Y287020I-5080J0D01*
G01*
D43*
X245110Y248920D02*
Y259080D01*
X255270D01*
Y248920D01*
X245110D01*
X168850D02*
Y259080D01*
X179010D01*
Y248920D01*
X168850D01*
Y217170D02*
Y227330D01*
X179010D01*
Y217170D01*
X168850D01*
X245110D02*
Y227330D01*
X255270D01*
Y217170D01*
X245110D01*
X654050Y26670D02*
X648970Y36830D01*
X659130D01*
X654050Y26670D01*
Y433070D02*
X648970Y443230D01*
X659130D01*
X654050Y433070D01*
X31750D02*
X26670Y443230D01*
X36830D01*
X31750Y433070D01*
Y26670D02*
X26670Y36830D01*
X36830D01*
X31750Y26670D01*
X116840Y320040D02*
X119380Y325120D01*
X116840Y330200D01*
X121920Y327660D01*
X127000Y330200D01*
X124460Y325120D01*
X127000Y320040D01*
X121920Y322580D01*
X116840Y320040D01*
X196850Y177800D02*
X199390Y182880D01*
X196850Y187960D01*
X201930Y185420D01*
X207010Y187960D01*
X204470Y182880D01*
X207010Y177800D01*
X201930Y180340D01*
X196850Y177800D01*
X248920Y344170D02*
X251460Y349250D01*
X248920Y354330D01*
X254000Y351790D01*
X259080Y354330D01*
X256540Y349250D01*
X259080Y344170D01*
X254000Y346710D01*
X248920Y344170D01*
X314960Y92710D02*
X317500Y97790D01*
X314960Y102870D01*
X320040Y100330D01*
X325120Y102870D01*
X322580Y97790D01*
X325120Y92710D01*
X320040Y95250D01*
X314960Y92710D01*
X274320Y248920D02*
X276860Y254000D01*
X274320Y259080D01*
X279400Y256540D01*
X284480Y259080D01*
X281940Y254000D01*
X284480Y248920D01*
X279400Y251460D01*
X274320Y248920D01*
X577850Y297180D02*
X580390Y302260D01*
X577850Y307340D01*
X582930Y304800D01*
X588010Y307340D01*
X585470Y302260D01*
X588010Y297180D01*
X582930Y299720D01*
X577850Y297180D01*
M02*
