G04*
G04 #@! TF.GenerationSoftware,Altium Limited,Altium Designer,24.6.1 (21)*
G04*
G04 Layer_Physical_Order=2*
G04 Layer_Color=16711680*
%FSLAX44Y44*%
%MOMM*%
G71*
G04*
G04 #@! TF.SameCoordinates,4D0109AF-B27D-4A28-B854-C6E4DC42B7D3*
G04*
G04*
G04 #@! TF.FilePolarity,Positive*
G04*
G01*
G75*
%ADD29C,1.2000*%
%ADD30R,1.2000X1.2000*%
%ADD37C,1.5500*%
%ADD38R,1.5500X1.5500*%
%ADD39C,1.0160*%
%ADD40C,3.1750*%
%ADD41C,1.5748*%
G36*
X685800Y0D02*
X0D01*
Y469900D01*
X685800D01*
Y0D01*
D02*
G37*
%LPC*%
G36*
X655864Y456565D02*
X655320D01*
Y439420D01*
X672465D01*
Y439964D01*
X671757Y443521D01*
X670369Y446873D01*
X668354Y449889D01*
X665789Y452454D01*
X662773Y454469D01*
X659421Y455857D01*
X655864Y456565D01*
D02*
G37*
G36*
X652780D02*
X652236D01*
X648679Y455857D01*
X645327Y454469D01*
X642311Y452454D01*
X639746Y449889D01*
X637731Y446873D01*
X636343Y443521D01*
X635635Y439964D01*
Y439420D01*
X652780D01*
Y456565D01*
D02*
G37*
G36*
X33564D02*
X33020D01*
Y439420D01*
X50165D01*
Y439964D01*
X49457Y443521D01*
X48069Y446873D01*
X46054Y449889D01*
X43489Y452454D01*
X40473Y454469D01*
X37122Y455857D01*
X33564Y456565D01*
D02*
G37*
G36*
X30480D02*
X29936D01*
X26379Y455857D01*
X23027Y454469D01*
X20011Y452454D01*
X17446Y449889D01*
X15431Y446873D01*
X14043Y443521D01*
X13335Y439964D01*
Y439420D01*
X30480D01*
Y456565D01*
D02*
G37*
G36*
X609600Y449166D02*
X606749Y448791D01*
X604092Y447690D01*
X601810Y445940D01*
X600060Y443658D01*
X598959Y441001D01*
X598584Y438150D01*
X598959Y435299D01*
X600060Y432642D01*
X601810Y430360D01*
X604092Y428610D01*
X606749Y427509D01*
X609600Y427134D01*
X612451Y427509D01*
X615108Y428610D01*
X617390Y430360D01*
X619140Y432642D01*
X620241Y435299D01*
X620616Y438150D01*
X620241Y441001D01*
X619140Y443658D01*
X617390Y445940D01*
X615108Y447690D01*
X612451Y448791D01*
X609600Y449166D01*
D02*
G37*
G36*
X76200D02*
X73349Y448791D01*
X70692Y447690D01*
X68410Y445940D01*
X66660Y443658D01*
X65559Y441001D01*
X65184Y438150D01*
X65559Y435299D01*
X66660Y432642D01*
X68410Y430360D01*
X70692Y428610D01*
X73349Y427509D01*
X76200Y427134D01*
X79051Y427509D01*
X81708Y428610D01*
X83990Y430360D01*
X85740Y432642D01*
X86841Y435299D01*
X87216Y438150D01*
X86841Y441001D01*
X85740Y443658D01*
X83990Y445940D01*
X81708Y447690D01*
X79051Y448791D01*
X76200Y449166D01*
D02*
G37*
G36*
X672465Y436880D02*
X655320D01*
Y419735D01*
X655864D01*
X659421Y420443D01*
X662773Y421831D01*
X665789Y423846D01*
X668354Y426411D01*
X670369Y429427D01*
X671757Y432779D01*
X672465Y436336D01*
Y436880D01*
D02*
G37*
G36*
X652780D02*
X635635D01*
Y436336D01*
X636343Y432779D01*
X637731Y429427D01*
X639746Y426411D01*
X642311Y423846D01*
X645327Y421831D01*
X648679Y420443D01*
X652236Y419735D01*
X652780D01*
Y436880D01*
D02*
G37*
G36*
X50165D02*
X33020D01*
Y419735D01*
X33564D01*
X37122Y420443D01*
X40473Y421831D01*
X43489Y423846D01*
X46054Y426411D01*
X48069Y429427D01*
X49457Y432779D01*
X50165Y436336D01*
Y436880D01*
D02*
G37*
G36*
X30480D02*
X13335D01*
Y436336D01*
X14043Y432779D01*
X15431Y429427D01*
X17446Y426411D01*
X20011Y423846D01*
X23027Y421831D01*
X26379Y420443D01*
X29936Y419735D01*
X30480D01*
Y436880D01*
D02*
G37*
G36*
X255371Y359664D02*
X255270D01*
Y350520D01*
X264414D01*
Y350621D01*
X263704Y353270D01*
X262333Y355644D01*
X260394Y357583D01*
X258020Y358954D01*
X255371Y359664D01*
D02*
G37*
G36*
X252730D02*
X252629D01*
X249980Y358954D01*
X247606Y357583D01*
X245667Y355644D01*
X244296Y353270D01*
X243586Y350621D01*
Y350520D01*
X252730D01*
Y359664D01*
D02*
G37*
G36*
X555008Y362842D02*
X552432D01*
X549944Y362175D01*
X547714Y360887D01*
X545892Y359066D01*
X544605Y356836D01*
X543938Y354348D01*
Y351772D01*
X544605Y349284D01*
X545892Y347054D01*
X547714Y345233D01*
X549944Y343945D01*
X552432Y343278D01*
X555008D01*
X557496Y343945D01*
X559726Y345233D01*
X561548Y347054D01*
X562835Y349284D01*
X563502Y351772D01*
Y354348D01*
X562835Y356836D01*
X561548Y359066D01*
X559726Y360887D01*
X557496Y362175D01*
X555008Y362842D01*
D02*
G37*
G36*
X264414Y347980D02*
X255270D01*
Y338836D01*
X255371D01*
X258020Y339546D01*
X260394Y340917D01*
X262333Y342856D01*
X263704Y345230D01*
X264414Y347879D01*
Y347980D01*
D02*
G37*
G36*
X252730D02*
X243586D01*
Y347879D01*
X244296Y345230D01*
X245667Y342856D01*
X247606Y340917D01*
X249980Y339546D01*
X252629Y338836D01*
X252730D01*
Y347980D01*
D02*
G37*
G36*
X123291Y335534D02*
X123190D01*
Y326390D01*
X132334D01*
Y326491D01*
X131624Y329140D01*
X130253Y331514D01*
X128314Y333453D01*
X125940Y334824D01*
X123291Y335534D01*
D02*
G37*
G36*
X120650D02*
X120549D01*
X117900Y334824D01*
X115526Y333453D01*
X113587Y331514D01*
X112216Y329140D01*
X111506Y326491D01*
Y326390D01*
X120650D01*
Y335534D01*
D02*
G37*
G36*
X555008Y337442D02*
X552432D01*
X549944Y336775D01*
X547714Y335488D01*
X545892Y333666D01*
X544605Y331436D01*
X543938Y328948D01*
Y326372D01*
X544605Y323884D01*
X545892Y321654D01*
X547714Y319832D01*
X549944Y318545D01*
X552432Y317878D01*
X555008D01*
X557496Y318545D01*
X559726Y319832D01*
X561548Y321654D01*
X562835Y323884D01*
X563502Y326372D01*
Y328948D01*
X562835Y331436D01*
X561548Y333666D01*
X559726Y335488D01*
X557496Y336775D01*
X555008Y337442D01*
D02*
G37*
G36*
X132334Y323850D02*
X123190D01*
Y314706D01*
X123291D01*
X125940Y315416D01*
X128314Y316787D01*
X130253Y318726D01*
X131624Y321100D01*
X132334Y323749D01*
Y323850D01*
D02*
G37*
G36*
X120650D02*
X111506D01*
Y323749D01*
X112216Y321100D01*
X113587Y318726D01*
X115526Y316787D01*
X117900Y315416D01*
X120549Y314706D01*
X120650D01*
Y323850D01*
D02*
G37*
G36*
X80095Y322710D02*
X80010D01*
Y313690D01*
X89030D01*
Y313775D01*
X88329Y316392D01*
X86974Y318738D01*
X85058Y320654D01*
X82712Y322009D01*
X80095Y322710D01*
D02*
G37*
G36*
X77470D02*
X77385D01*
X74768Y322009D01*
X72422Y320654D01*
X70506Y318738D01*
X69151Y316392D01*
X68450Y313775D01*
Y313690D01*
X77470D01*
Y322710D01*
D02*
G37*
G36*
X555075Y312550D02*
X554990D01*
Y303530D01*
X564010D01*
Y303615D01*
X563309Y306232D01*
X561954Y308578D01*
X560038Y310494D01*
X557692Y311849D01*
X555075Y312550D01*
D02*
G37*
G36*
X584301Y312674D02*
X584200D01*
Y303530D01*
X593344D01*
Y303631D01*
X592634Y306280D01*
X591263Y308654D01*
X589324Y310593D01*
X586950Y311964D01*
X584301Y312674D01*
D02*
G37*
G36*
X581660D02*
X581559D01*
X578910Y311964D01*
X576536Y310593D01*
X574597Y308654D01*
X573226Y306280D01*
X572516Y303631D01*
Y303530D01*
X581660D01*
Y312674D01*
D02*
G37*
G36*
X552450Y312550D02*
X552365D01*
X549748Y311849D01*
X547402Y310494D01*
X545486Y308578D01*
X544131Y306232D01*
X543430Y303615D01*
Y303530D01*
X552450D01*
Y312550D01*
D02*
G37*
G36*
X89030Y311150D02*
X80010D01*
Y302130D01*
X80095D01*
X82712Y302831D01*
X85058Y304186D01*
X86974Y306102D01*
X88329Y308448D01*
X89030Y311065D01*
Y311150D01*
D02*
G37*
G36*
X77470D02*
X68450D01*
Y311065D01*
X69151Y308448D01*
X70506Y306102D01*
X72422Y304186D01*
X74768Y302831D01*
X77385Y302130D01*
X77470D01*
Y311150D01*
D02*
G37*
G36*
X564010Y300990D02*
X554990D01*
Y291970D01*
X555075D01*
X557692Y292671D01*
X560038Y294026D01*
X561954Y295942D01*
X563309Y298288D01*
X564010Y300905D01*
Y300990D01*
D02*
G37*
G36*
X552450D02*
X543430D01*
Y300905D01*
X544131Y298288D01*
X545486Y295942D01*
X547402Y294026D01*
X549748Y292671D01*
X552365Y291970D01*
X552450D01*
Y300990D01*
D02*
G37*
G36*
X593344D02*
X584200D01*
Y291846D01*
X584301D01*
X586950Y292556D01*
X589324Y293927D01*
X591263Y295866D01*
X592634Y298240D01*
X593344Y300889D01*
Y300990D01*
D02*
G37*
G36*
X581660D02*
X572516D01*
Y300889D01*
X573226Y298240D01*
X574597Y295866D01*
X576536Y293927D01*
X578910Y292556D01*
X581559Y291846D01*
X581660D01*
Y300990D01*
D02*
G37*
G36*
X88522Y296802D02*
X68958D01*
Y277238D01*
X88522D01*
Y296802D01*
D02*
G37*
G36*
X555008Y286642D02*
X552432D01*
X549944Y285975D01*
X547714Y284688D01*
X545892Y282866D01*
X544605Y280636D01*
X543938Y278148D01*
Y275572D01*
X544605Y273084D01*
X545892Y270854D01*
X547714Y269032D01*
X549944Y267745D01*
X552432Y267078D01*
X555008D01*
X557496Y267745D01*
X559726Y269032D01*
X561548Y270854D01*
X562835Y273084D01*
X563502Y275572D01*
Y278148D01*
X562835Y280636D01*
X561548Y282866D01*
X559726Y284688D01*
X557496Y285975D01*
X555008Y286642D01*
D02*
G37*
G36*
X280771Y264414D02*
X280670D01*
Y255270D01*
X289814D01*
Y255371D01*
X289104Y258020D01*
X287733Y260394D01*
X285794Y262333D01*
X283420Y263704D01*
X280771Y264414D01*
D02*
G37*
G36*
X278130D02*
X278029D01*
X275380Y263704D01*
X273006Y262333D01*
X271067Y260394D01*
X269696Y258020D01*
X268986Y255371D01*
Y255270D01*
X278130D01*
Y264414D01*
D02*
G37*
G36*
X251460Y262501D02*
Y255270D01*
X258691D01*
X258148Y257296D01*
X257024Y259244D01*
X255434Y260834D01*
X253486Y261958D01*
X251460Y262501D01*
D02*
G37*
G36*
X248920D02*
X246894Y261958D01*
X244946Y260834D01*
X243356Y259244D01*
X242232Y257296D01*
X241689Y255270D01*
X248920D01*
Y262501D01*
D02*
G37*
G36*
X181962Y262032D02*
X165898D01*
Y245968D01*
X181962D01*
Y262032D01*
D02*
G37*
G36*
X258691Y252730D02*
X251460D01*
Y245499D01*
X253486Y246042D01*
X255434Y247166D01*
X257024Y248756D01*
X258148Y250704D01*
X258691Y252730D01*
D02*
G37*
G36*
X248920D02*
X241689D01*
X242232Y250704D01*
X243356Y248756D01*
X244946Y247166D01*
X246894Y246042D01*
X248920Y245499D01*
Y252730D01*
D02*
G37*
G36*
X289814D02*
X280670D01*
Y243586D01*
X280771D01*
X283420Y244296D01*
X285794Y245667D01*
X287733Y247606D01*
X289104Y249980D01*
X289814Y252629D01*
Y252730D01*
D02*
G37*
G36*
X278130D02*
X268986D01*
Y252629D01*
X269696Y249980D01*
X271067Y247606D01*
X273006Y245667D01*
X275380Y244296D01*
X278029Y243586D01*
X278130D01*
Y252730D01*
D02*
G37*
G36*
X563502Y261242D02*
X543938D01*
Y241678D01*
X563502D01*
Y261242D01*
D02*
G37*
G36*
X258222Y230282D02*
X242158D01*
Y214218D01*
X258222D01*
Y230282D01*
D02*
G37*
G36*
X174987D02*
X172873D01*
X170830Y229735D01*
X168998Y228677D01*
X167503Y227182D01*
X166445Y225350D01*
X165898Y223307D01*
Y221193D01*
X166445Y219150D01*
X167503Y217318D01*
X168998Y215823D01*
X170830Y214765D01*
X172873Y214218D01*
X174987D01*
X177030Y214765D01*
X178862Y215823D01*
X180357Y217318D01*
X181415Y219150D01*
X181962Y221193D01*
Y223307D01*
X181415Y225350D01*
X180357Y227182D01*
X178862Y228677D01*
X177030Y229735D01*
X174987Y230282D01*
D02*
G37*
G36*
X203301Y193294D02*
X203200D01*
Y184150D01*
X212344D01*
Y184251D01*
X211634Y186900D01*
X210263Y189274D01*
X208324Y191213D01*
X205950Y192584D01*
X203301Y193294D01*
D02*
G37*
G36*
X200660D02*
X200559D01*
X197910Y192584D01*
X195536Y191213D01*
X193597Y189274D01*
X192226Y186900D01*
X191516Y184251D01*
Y184150D01*
X200660D01*
Y193294D01*
D02*
G37*
G36*
X212344Y181610D02*
X203200D01*
Y172466D01*
X203301D01*
X205950Y173176D01*
X208324Y174547D01*
X210263Y176486D01*
X211634Y178860D01*
X212344Y181509D01*
Y181610D01*
D02*
G37*
G36*
X200660D02*
X191516D01*
Y181509D01*
X192226Y178860D01*
X193597Y176486D01*
X195536Y174547D01*
X197910Y173176D01*
X200559Y172466D01*
X200660D01*
Y181610D01*
D02*
G37*
G36*
X321411Y108204D02*
X321310D01*
Y99060D01*
X330454D01*
Y99161D01*
X329744Y101810D01*
X328373Y104184D01*
X326434Y106123D01*
X324060Y107494D01*
X321411Y108204D01*
D02*
G37*
G36*
X318770D02*
X318669D01*
X316020Y107494D01*
X313646Y106123D01*
X311707Y104184D01*
X310336Y101810D01*
X309626Y99161D01*
Y99060D01*
X318770D01*
Y108204D01*
D02*
G37*
G36*
X330454Y96520D02*
X321310D01*
Y87376D01*
X321411D01*
X324060Y88086D01*
X326434Y89457D01*
X328373Y91396D01*
X329744Y93770D01*
X330454Y96419D01*
Y96520D01*
D02*
G37*
G36*
X318770D02*
X309626D01*
Y96419D01*
X310336Y93770D01*
X311707Y91396D01*
X313646Y89457D01*
X316020Y88086D01*
X318669Y87376D01*
X318770D01*
Y96520D01*
D02*
G37*
G36*
X655864Y50165D02*
X655320D01*
Y33020D01*
X672465D01*
Y33564D01*
X671757Y37122D01*
X670369Y40473D01*
X668354Y43489D01*
X665789Y46054D01*
X662773Y48069D01*
X659421Y49457D01*
X655864Y50165D01*
D02*
G37*
G36*
X652780D02*
X652236D01*
X648679Y49457D01*
X645327Y48069D01*
X642311Y46054D01*
X639746Y43489D01*
X637731Y40473D01*
X636343Y37122D01*
X635635Y33564D01*
Y33020D01*
X652780D01*
Y50165D01*
D02*
G37*
G36*
X33564D02*
X33020D01*
Y33020D01*
X50165D01*
Y33564D01*
X49457Y37122D01*
X48069Y40473D01*
X46054Y43489D01*
X43489Y46054D01*
X40473Y48069D01*
X37122Y49457D01*
X33564Y50165D01*
D02*
G37*
G36*
X30480D02*
X29936D01*
X26379Y49457D01*
X23027Y48069D01*
X20011Y46054D01*
X17446Y43489D01*
X15431Y40473D01*
X14043Y37122D01*
X13335Y33564D01*
Y33020D01*
X30480D01*
Y50165D01*
D02*
G37*
G36*
X609600Y42766D02*
X606749Y42391D01*
X604092Y41290D01*
X601810Y39540D01*
X600060Y37258D01*
X598959Y34601D01*
X598584Y31750D01*
X598959Y28899D01*
X600060Y26242D01*
X601810Y23960D01*
X604092Y22210D01*
X606749Y21109D01*
X609600Y20734D01*
X612451Y21109D01*
X615108Y22210D01*
X617390Y23960D01*
X619140Y26242D01*
X620241Y28899D01*
X620616Y31750D01*
X620241Y34601D01*
X619140Y37258D01*
X617390Y39540D01*
X615108Y41290D01*
X612451Y42391D01*
X609600Y42766D01*
D02*
G37*
G36*
X76200D02*
X73349Y42391D01*
X70692Y41290D01*
X68410Y39540D01*
X66660Y37258D01*
X65559Y34601D01*
X65184Y31750D01*
X65559Y28899D01*
X66660Y26242D01*
X68410Y23960D01*
X70692Y22210D01*
X73349Y21109D01*
X76200Y20734D01*
X79051Y21109D01*
X81708Y22210D01*
X83990Y23960D01*
X85740Y26242D01*
X86841Y28899D01*
X87216Y31750D01*
X86841Y34601D01*
X85740Y37258D01*
X83990Y39540D01*
X81708Y41290D01*
X79051Y42391D01*
X76200Y42766D01*
D02*
G37*
G36*
X672465Y30480D02*
X655320D01*
Y13335D01*
X655864D01*
X659421Y14043D01*
X662773Y15431D01*
X665789Y17446D01*
X668354Y20011D01*
X670369Y23027D01*
X671757Y26379D01*
X672465Y29936D01*
Y30480D01*
D02*
G37*
G36*
X652780D02*
X635635D01*
Y29936D01*
X636343Y26379D01*
X637731Y23027D01*
X639746Y20011D01*
X642311Y17446D01*
X645327Y15431D01*
X648679Y14043D01*
X652236Y13335D01*
X652780D01*
Y30480D01*
D02*
G37*
G36*
X50165D02*
X33020D01*
Y13335D01*
X33564D01*
X37122Y14043D01*
X40473Y15431D01*
X43489Y17446D01*
X46054Y20011D01*
X48069Y23027D01*
X49457Y26379D01*
X50165Y29936D01*
Y30480D01*
D02*
G37*
G36*
X30480D02*
X13335D01*
Y29936D01*
X14043Y26379D01*
X15431Y23027D01*
X17446Y20011D01*
X20011Y17446D01*
X23027Y15431D01*
X26379Y14043D01*
X29936Y13335D01*
X30480D01*
Y30480D01*
D02*
G37*
%LPD*%
D29*
X250190Y254000D02*
D03*
X173930Y222250D02*
D03*
D30*
Y254000D02*
D03*
X250190Y222250D02*
D03*
D37*
X553720Y353060D02*
D03*
Y327660D02*
D03*
Y302260D02*
D03*
Y276860D02*
D03*
X78740Y312420D02*
D03*
D38*
X553720Y251460D02*
D03*
X78740Y287020D02*
D03*
D39*
X609600Y31750D02*
D03*
Y438150D02*
D03*
X76200D02*
D03*
Y31750D02*
D03*
D40*
X654050D02*
D03*
Y438150D02*
D03*
X31750D02*
D03*
Y31750D02*
D03*
D41*
X121920Y325120D02*
D03*
X201930Y182880D02*
D03*
X254000Y349250D02*
D03*
X320040Y97790D02*
D03*
X279400Y254000D02*
D03*
X582930Y302260D02*
D03*
M02*
