G04*
G04 #@! TF.GenerationSoftware,Altium Limited,Altium Designer,24.6.1 (21)*
G04*
G04 Layer_Color=128*
%FSLAX44Y44*%
%MOMM*%
G71*
G04*
G04 #@! TF.SameCoordinates,4D0109AF-B27D-4A28-B854-C6E4DC42B7D3*
G04*
G04*
G04 #@! TF.FilePolarity,Positive*
G04*
G01*
G75*
%ADD43C,0.1270*%
D43*
X548620Y353060D02*
X558820D01*
X553720Y347960D02*
Y358160D01*
X548620Y327660D02*
X558820D01*
X553720Y322560D02*
Y332760D01*
X548620Y302260D02*
X558820D01*
X553720Y297160D02*
Y307360D01*
X548620Y276860D02*
X558820D01*
X553720Y271760D02*
Y281960D01*
X548620Y251460D02*
X558820D01*
X553720Y246360D02*
Y256560D01*
X73640Y312420D02*
X83840D01*
X78740Y307320D02*
Y317520D01*
X73640Y287020D02*
X83840D01*
X78740Y281920D02*
Y292120D01*
X246690Y254000D02*
X253690D01*
X250190Y250500D02*
Y257500D01*
X170430Y254000D02*
X177430D01*
X173930Y250500D02*
Y257500D01*
X170430Y222250D02*
X177430D01*
X173930Y218750D02*
Y225750D01*
X246690Y222250D02*
X253690D01*
X250190Y218750D02*
Y225750D01*
X638175Y31750D02*
X669925D01*
X654050Y15875D02*
Y47625D01*
X638175Y438150D02*
X669925D01*
X654050Y422275D02*
Y454025D01*
X15875Y438150D02*
X47625D01*
X31750Y422275D02*
Y454025D01*
X15875Y31750D02*
X47625D01*
X31750Y15875D02*
Y47625D01*
X118872Y325120D02*
X124968D01*
X121920Y322072D02*
Y328168D01*
X198882Y182880D02*
X204978D01*
X201930Y179832D02*
Y185928D01*
X250952Y349250D02*
X257048D01*
X254000Y346202D02*
Y352298D01*
X316992Y97790D02*
X323088D01*
X320040Y94742D02*
Y100838D01*
X276352Y254000D02*
X282448D01*
X279400Y250952D02*
Y257048D01*
X579882Y302260D02*
X585978D01*
X582930Y299212D02*
Y305308D01*
M02*
