G04*
G04 #@! TF.GenerationSoftware,Altium Limited,Altium Designer,24.6.1 (21)*
G04*
G04 Layer_Physical_Order=1*
G04 Layer_Color=255*
%FSLAX44Y44*%
%MOMM*%
G71*
G04*
G04 #@! TF.SameCoordinates,4D0109AF-B27D-4A28-B854-C6E4DC42B7D3*
G04*
G04*
G04 #@! TF.FilePolarity,Positive*
G04*
G01*
G75*
%ADD12C,0.2540*%
%ADD13R,1.8000X1.4000*%
%ADD14R,1.0000X0.9000*%
%ADD15R,0.5665X0.5725*%
%ADD16R,1.0121X1.1587*%
%ADD17R,0.8581X1.5621*%
%ADD18R,1.6621X1.0581*%
%ADD19R,1.4000X0.9500*%
%ADD20R,0.7000X1.3000*%
%ADD21O,0.7000X2.5000*%
%ADD22R,0.5725X0.5665*%
%ADD23R,1.3000X0.7000*%
%ADD29C,1.2000*%
%ADD30R,1.2000X1.2000*%
%ADD34C,0.5080*%
%ADD35C,0.7620*%
%ADD36C,0.3048*%
%ADD37C,1.5500*%
%ADD38R,1.5500X1.5500*%
%ADD39C,1.0160*%
%ADD40C,3.1750*%
%ADD41C,1.5748*%
G36*
X530860Y337820D02*
X558800D01*
X563880Y332740D01*
Y322580D01*
X558800Y317500D01*
X530860Y317500D01*
X509270Y339090D01*
X435610D01*
X427990Y346710D01*
X361950Y346710D01*
X344170Y328930D01*
X344170Y303530D01*
X341630Y300990D01*
X336550D01*
X334010Y303530D01*
Y335280D01*
X359410Y360680D01*
X508000D01*
X530860Y337820D01*
D02*
G37*
G36*
X511810Y311150D02*
X572770Y311150D01*
X576580Y314960D01*
X589280D01*
X595630Y308610D01*
Y295910D01*
X589280Y289560D01*
X576580D01*
X572770Y293370D01*
X499110D01*
X487680Y281940D01*
X383540Y281940D01*
X353060Y251460D01*
X350520Y251460D01*
X346710Y255270D01*
Y276860D01*
X350520Y280670D01*
X363220D01*
X383540Y300990D01*
Y327660D01*
X389890Y334010D01*
X488950D01*
X511810Y311150D01*
D02*
G37*
G36*
X307340Y303530D02*
X332740Y278130D01*
Y248920D01*
X336550Y245110D01*
X359410D01*
X384810Y270510D01*
X417830D01*
X424180Y276860D01*
X502920D01*
X511810Y285750D01*
X560070D01*
X562610Y283210D01*
Y270510D01*
X560070Y267970D01*
X529590Y267970D01*
X447040Y185420D01*
X303530D01*
X260350Y185420D01*
X254000Y179070D01*
X254000Y172720D01*
X251460Y170180D01*
X241300D01*
X238760Y172720D01*
Y196850D01*
X238760Y227330D01*
X242570Y231140D01*
X303530D01*
X321310Y248920D01*
Y276860D01*
X312419Y285750D01*
X266700Y285750D01*
X264160Y288290D01*
X264160Y300990D01*
X266700Y303530D01*
X307340Y303530D01*
D02*
G37*
G36*
X562610Y259080D02*
X562610Y243840D01*
X561340Y242570D01*
X546100Y242570D01*
X444500Y140970D01*
X327660Y140970D01*
X323850Y137160D01*
X275590Y137160D01*
X274320Y138430D01*
Y144780D01*
X266700Y152400D01*
X240030D01*
X232410Y160020D01*
X232410Y170180D01*
X231140Y171450D01*
X215900Y171450D01*
X214630Y172720D01*
Y177800D01*
X215900Y179070D01*
X229870Y179070D01*
X232410Y176530D01*
Y175260D01*
X237718Y169952D01*
Y169678D01*
X237992D01*
X238760Y168910D01*
Y161290D01*
X240030Y160020D01*
X270510D01*
X278130Y152400D01*
X438150D01*
X546100Y260350D01*
X561340Y260350D01*
X562610Y259080D01*
D02*
G37*
G36*
X358140Y128270D02*
Y80010D01*
X355600Y77470D01*
X303530D01*
X273050Y107950D01*
Y124460D01*
X274320Y125730D01*
X292100D01*
X299720Y133350D01*
X353060D01*
X358140Y128270D01*
D02*
G37*
%LPC*%
G36*
X584301Y312674D02*
X584200D01*
Y303530D01*
X593344D01*
Y303631D01*
X592634Y306280D01*
X591263Y308654D01*
X589324Y310593D01*
X586950Y311964D01*
X584301Y312674D01*
D02*
G37*
G36*
X581660D02*
X581559D01*
X578910Y311964D01*
X576536Y310593D01*
X574597Y308654D01*
X573226Y306280D01*
X572516Y303631D01*
Y303530D01*
X581660D01*
Y312674D01*
D02*
G37*
G36*
X593344Y300990D02*
X584200D01*
Y291846D01*
X584301D01*
X586950Y292556D01*
X589324Y293927D01*
X591263Y295866D01*
X592634Y298240D01*
X593344Y300889D01*
Y300990D01*
D02*
G37*
G36*
X581660D02*
X572516D01*
Y300889D01*
X573226Y298240D01*
X574597Y295866D01*
X576536Y293927D01*
X578910Y292556D01*
X581559Y291846D01*
X581660D01*
Y300990D01*
D02*
G37*
%LPD*%
D12*
X541020Y165100D02*
Y171871D01*
X544406Y175257D01*
X547791Y171871D01*
Y165100D01*
Y170178D01*
X541020D01*
X551177Y165100D02*
Y175257D01*
X557948Y165100D01*
Y175257D01*
X561333Y165100D02*
Y171871D01*
X564719Y175257D01*
X568105Y171871D01*
Y165100D01*
Y170178D01*
X561333D01*
X571490Y175257D02*
Y165100D01*
X578261D01*
X586725Y175257D02*
X583340D01*
X581647Y173564D01*
Y166793D01*
X583340Y165100D01*
X586725D01*
X588418Y166793D01*
Y173564D01*
X586725Y175257D01*
X598575Y173564D02*
X596882Y175257D01*
X593496D01*
X591804Y173564D01*
Y166793D01*
X593496Y165100D01*
X596882D01*
X598575Y166793D01*
Y170178D01*
X595189D01*
X612117Y165100D02*
Y175257D01*
X617195D01*
X618888Y173564D01*
Y170178D01*
X617195Y168486D01*
X612117D01*
X615503D02*
X618888Y165100D01*
X629045Y175257D02*
X622274D01*
Y165100D01*
X629045D01*
X622274Y170178D02*
X625659D01*
X632430Y165100D02*
Y171871D01*
X635816Y175257D01*
X639202Y171871D01*
Y165100D01*
Y170178D01*
X632430D01*
X642587Y175257D02*
Y165100D01*
X647666D01*
X649358Y166793D01*
Y173564D01*
X647666Y175257D01*
X642587D01*
X547791Y130384D02*
X546098Y132077D01*
X542713D01*
X541020Y130384D01*
Y123613D01*
X542713Y121920D01*
X546098D01*
X547791Y123613D01*
Y126998D01*
X544406D01*
X551177Y121920D02*
Y132077D01*
X557948Y121920D01*
Y132077D01*
X561333D02*
Y121920D01*
X566412D01*
X568105Y123613D01*
Y130384D01*
X566412Y132077D01*
X561333D01*
X541020Y90590D02*
Y83818D01*
X544406Y80433D01*
X547791Y83818D01*
Y90590D01*
X551177Y78740D02*
X557948D01*
X561333Y80433D02*
Y90590D01*
X566412D01*
X568105Y88897D01*
Y85511D01*
X566412Y83818D01*
X561333D01*
X564719D02*
X568105Y80433D01*
X578261Y90590D02*
X571490D01*
Y80433D01*
X578261D01*
X571490Y85511D02*
X574876D01*
X588418Y90590D02*
X581647D01*
Y85511D01*
X585033D01*
X581647D01*
Y80433D01*
X591804Y78740D02*
X598575D01*
X601960Y80433D02*
X605346D01*
X603653D01*
Y90590D01*
X601960Y88897D01*
X610424Y80433D02*
Y82126D01*
X612117D01*
Y80433D01*
X610424D01*
X625659Y90590D02*
X622274Y88897D01*
X618888Y85511D01*
Y82126D01*
X620581Y80433D01*
X623967D01*
X625659Y82126D01*
Y83818D01*
X623967Y85511D01*
X618888D01*
X635816Y90590D02*
X629045D01*
Y85511D01*
X632430Y87204D01*
X634123D01*
X635816Y85511D01*
Y82126D01*
X634123Y80433D01*
X630738D01*
X629045Y82126D01*
X639202Y90590D02*
Y83818D01*
X642587Y80433D01*
X645973Y83818D01*
Y90590D01*
X541020Y108794D02*
X542713Y110487D01*
X546098D01*
X547791Y108794D01*
Y107101D01*
X546098Y105408D01*
X544406D01*
X546098D01*
X547791Y103716D01*
Y102023D01*
X546098Y100330D01*
X542713D01*
X541020Y102023D01*
X551177Y110487D02*
Y103716D01*
X554562Y100330D01*
X557948Y103716D01*
Y110487D01*
X561333Y108794D02*
X563026Y110487D01*
X566412D01*
X568105Y108794D01*
Y107101D01*
X566412Y105408D01*
X564719D01*
X566412D01*
X568105Y103716D01*
Y102023D01*
X566412Y100330D01*
X563026D01*
X561333Y102023D01*
X541020Y155359D02*
Y148588D01*
X544406Y145203D01*
X547791Y148588D01*
Y155359D01*
X551177Y143510D02*
X557948D01*
X561333Y145203D02*
Y155359D01*
X566412D01*
X568105Y153667D01*
Y150281D01*
X566412Y148588D01*
X561333D01*
X564719D02*
X568105Y145203D01*
X578261Y155359D02*
X571490D01*
Y145203D01*
X578261D01*
X571490Y150281D02*
X574876D01*
X588418Y155359D02*
X581647D01*
Y150281D01*
X585033D01*
X581647D01*
Y145203D01*
X591804Y143510D02*
X598575D01*
X608731Y145203D02*
X601960D01*
X608731Y151974D01*
Y153667D01*
X607039Y155359D01*
X603653D01*
X601960Y153667D01*
X612117Y145203D02*
Y146896D01*
X613810D01*
Y145203D01*
X612117D01*
X620581Y153667D02*
X622274Y155359D01*
X625659D01*
X627352Y153667D01*
Y146896D01*
X625659Y145203D01*
X622274D01*
X620581Y146896D01*
Y153667D01*
X635816Y145203D02*
Y155359D01*
X630738Y150281D01*
X637509D01*
X640894Y153667D02*
X642587Y155359D01*
X645973D01*
X647666Y153667D01*
Y151974D01*
X645973Y150281D01*
X647666Y148588D01*
Y146896D01*
X645973Y145203D01*
X642587D01*
X640894Y146896D01*
Y148588D01*
X642587Y150281D01*
X640894Y151974D01*
Y153667D01*
X642587Y150281D02*
X645973D01*
X651051Y155359D02*
Y148588D01*
X654437Y145203D01*
X657822Y148588D01*
Y155359D01*
X516890Y130384D02*
X518583Y132077D01*
X521968D01*
X523661Y130384D01*
Y128691D01*
X521968Y126998D01*
X520276D01*
X521968D01*
X523661Y125306D01*
Y123613D01*
X521968Y121920D01*
X518583D01*
X516890Y123613D01*
X521968Y143510D02*
Y153667D01*
X516890Y148588D01*
X523661D01*
Y175257D02*
X516890D01*
Y170178D01*
X520276Y171871D01*
X521968D01*
X523661Y170178D01*
Y166793D01*
X521968Y165100D01*
X518583D01*
X516890Y166793D01*
X518922Y78740D02*
X522308D01*
X520615D01*
Y88897D01*
X518922Y87204D01*
X523661Y100330D02*
X516890D01*
X523661Y107101D01*
Y108794D01*
X521968Y110487D01*
X518583D01*
X516890Y108794D01*
X62651Y377190D02*
X55880D01*
X62651Y383961D01*
Y385654D01*
X60958Y387347D01*
X57573D01*
X55880Y385654D01*
X57912Y354330D02*
X61298D01*
X59605D01*
Y364487D01*
X57912Y362794D01*
X86781Y364487D02*
X85088Y366180D01*
X81703D01*
X80010Y364487D01*
Y362794D01*
X81703Y361101D01*
X85088D01*
X86781Y359408D01*
Y357716D01*
X85088Y356023D01*
X81703D01*
X80010Y357716D01*
X90167Y366180D02*
X93552D01*
X91860D01*
Y356023D01*
X90167D01*
X93552D01*
X105402Y364487D02*
X103709Y366180D01*
X100323D01*
X98631Y364487D01*
Y357716D01*
X100323Y356023D01*
X103709D01*
X105402Y357716D01*
Y361101D01*
X102016D01*
X108787Y356023D02*
Y366180D01*
X115559Y356023D01*
Y366180D01*
X118944Y356023D02*
Y362794D01*
X122330Y366180D01*
X125715Y362794D01*
Y356023D01*
Y361101D01*
X118944D01*
X129101Y366180D02*
Y356023D01*
X135872D01*
X139258Y354330D02*
X146029D01*
X149414Y366180D02*
X152800D01*
X151107D01*
Y356023D01*
X149414D01*
X152800D01*
X157878D02*
Y366180D01*
X164649Y356023D01*
Y366180D01*
X168035Y356023D02*
Y366180D01*
X173113D01*
X174806Y364487D01*
Y361101D01*
X173113Y359408D01*
X168035D01*
X178192Y366180D02*
Y357716D01*
X179884Y356023D01*
X183270D01*
X184963Y357716D01*
Y366180D01*
X188348D02*
X195119D01*
X191734D01*
Y356023D01*
X86781Y384384D02*
X85088Y386077D01*
X81703D01*
X80010Y384384D01*
Y377613D01*
X81703Y375920D01*
X85088D01*
X86781Y377613D01*
Y380998D01*
X83396D01*
X90167Y375920D02*
Y386077D01*
X96938Y375920D01*
Y386077D01*
X100323D02*
Y375920D01*
X105402D01*
X107095Y377613D01*
Y384384D01*
X105402Y386077D01*
X100323D01*
D13*
X398780Y353360D02*
D03*
Y327360D02*
D03*
Y262290D02*
D03*
Y288290D02*
D03*
X284480Y144780D02*
D03*
Y118780D02*
D03*
D14*
X270620Y368300D02*
D03*
X252620D02*
D03*
D15*
X136610Y285750D02*
D03*
X127550D02*
D03*
X232410Y199390D02*
D03*
X241470D02*
D03*
D16*
X440690Y328283D02*
D03*
Y344817D02*
D03*
Y287667D02*
D03*
Y271133D02*
D03*
X316230Y126353D02*
D03*
Y142887D02*
D03*
D17*
X353760Y88900D02*
D03*
X380300D02*
D03*
D18*
X379730Y117810D02*
D03*
Y146350D02*
D03*
D19*
X481330Y328570D02*
D03*
Y347070D02*
D03*
Y288650D02*
D03*
Y270150D02*
D03*
X346710Y129180D02*
D03*
Y147680D02*
D03*
D20*
X272390Y320610D02*
D03*
X262890D02*
D03*
X253390D02*
D03*
Y296610D02*
D03*
X272390D02*
D03*
D21*
X313690Y266330D02*
D03*
X326390D02*
D03*
X339090D02*
D03*
X351790D02*
D03*
X313690Y315330D02*
D03*
X326390D02*
D03*
X339090D02*
D03*
X351790D02*
D03*
D22*
X201930Y165820D02*
D03*
Y156760D02*
D03*
D23*
X222250Y175210D02*
D03*
Y165710D02*
D03*
Y156210D02*
D03*
X246250D02*
D03*
Y175210D02*
D03*
D29*
X250190Y254000D02*
D03*
X173930Y222250D02*
D03*
D30*
Y254000D02*
D03*
X250190Y222250D02*
D03*
D34*
X197684Y199390D02*
G03*
X194101Y197911I0J-5080D01*
G01*
X105306Y312420D02*
G03*
X108624Y313653I0J5080D01*
G01*
X234206Y303530D02*
G03*
X237798Y305018I0J5080D01*
G01*
X156494Y303530D02*
G03*
X152902Y302042I0J-5080D01*
G01*
X508218Y398562D02*
G03*
X504626Y400050I-3592J-3592D01*
G01*
X286804Y400050D02*
G03*
X283212Y398562I0J-5080D01*
G01*
X167413Y171223D02*
G03*
X165934Y167640I3601J-3583D01*
G01*
X185710Y150490D02*
G03*
X197522Y154312I-20642J83943D01*
G01*
X183983Y150369D02*
G03*
X185692Y150485I514J5054D01*
G01*
X172427Y152692D02*
G03*
X175506Y151230I3592J3592D01*
G01*
X199818Y155564D02*
G03*
X199787Y155547I2486J-4430D01*
G01*
X165934Y161274D02*
G03*
X167415Y157705I5080J16D01*
G01*
X197522Y154312D02*
G03*
X198094Y154589I-1922J4702D01*
G01*
X167413Y171223D02*
X194101Y197911D01*
X197684Y199390D02*
X232410D01*
X108624Y313653D02*
X121920Y325120D01*
X78740Y312420D02*
X105306D01*
X201930Y165820D02*
Y182880D01*
X254000Y346363D02*
Y349250D01*
X262890Y320610D02*
Y337473D01*
X254000Y346363D02*
X262890Y337473D01*
X219710Y356870D02*
X231140Y368300D01*
X252620D01*
X219710Y344170D02*
Y356870D01*
Y344170D02*
X226060Y337820D01*
X239180D02*
X253390Y323610D01*
X226060Y337820D02*
X239180D01*
X253390Y320610D02*
Y323610D01*
X136932Y286072D02*
X152902Y302042D01*
X237798Y305018D02*
X253390Y320610D01*
X156494Y303530D02*
X234206Y303530D01*
X272000Y387350D02*
X283212Y398562D01*
X508218Y398562D02*
X553720Y353060D01*
X286804Y400050D02*
X504626Y400050D01*
X272195Y320805D02*
Y387155D01*
X272000Y387350D02*
X272195Y387155D01*
Y320805D02*
X272390Y320610D01*
X250190Y254000D02*
X279400D01*
X173930Y222250D02*
Y254000D01*
X160552Y267378D02*
X173930Y254000D01*
X146820Y267378D02*
X160552D01*
X136902Y277296D02*
Y285458D01*
Y277296D02*
X146820Y267378D01*
X136610Y285750D02*
X136902Y285458D01*
X136610Y285780D02*
X136902Y286072D01*
X136932D01*
X127258D02*
X127550Y285780D01*
X126280Y287020D02*
X127227Y286072D01*
X127550Y285750D02*
Y285780D01*
X127227Y286072D02*
X127258D01*
X78740Y287020D02*
X126280D01*
X201930Y165820D02*
X201985Y165765D01*
X222195D01*
X222250Y165710D01*
X165934Y161274D02*
Y167640D01*
X175506Y151230D02*
X183983Y150369D01*
X167415Y157705D02*
X172427Y152692D01*
X185692Y150485D02*
X185710Y150490D01*
X199818Y155564D02*
X201608Y156562D01*
X201930Y156760D01*
X201960D02*
X202510Y156210D01*
X198094Y154589D02*
X199787Y155547D01*
X202510Y156210D02*
X222250D01*
D35*
X201930Y220980D02*
Y242770D01*
X253390Y294230D02*
Y296610D01*
X201930Y242770D02*
X253390Y294230D01*
X141586Y154324D02*
Y160636D01*
Y154324D02*
X237490Y58420D01*
X141586Y160636D02*
X201930Y220980D01*
X237490Y58420D02*
X375836D01*
X380300Y62884D02*
Y88900D01*
X375836Y58420D02*
X380300Y62884D01*
X379730Y92990D02*
X380300Y92420D01*
Y88900D02*
Y92420D01*
X379730Y92990D02*
Y117810D01*
D36*
X551685Y204973D02*
X546606D01*
X549146D01*
Y192277D01*
X546606Y189738D01*
X544067D01*
X541528Y192277D01*
X566920Y189738D02*
X556763D01*
X566920Y199895D01*
Y202434D01*
X564381Y204973D01*
X559302D01*
X556763Y202434D01*
X587233Y189738D02*
Y204973D01*
X594851D01*
X597390Y202434D01*
Y197355D01*
X594851Y194816D01*
X587233D01*
X602468Y204973D02*
X607547D01*
X605008D01*
Y189738D01*
X602468D01*
X607547D01*
X615164D02*
Y204973D01*
X625321Y189738D01*
Y204973D01*
X640556Y202434D02*
X638017Y204973D01*
X632938D01*
X630399Y202434D01*
Y199895D01*
X632938Y197355D01*
X638017D01*
X640556Y194816D01*
Y192277D01*
X638017Y189738D01*
X632938D01*
X630399Y192277D01*
X90675Y415793D02*
X85596D01*
X88135D01*
Y403097D01*
X85596Y400558D01*
X83057D01*
X80518Y403097D01*
X95753Y400558D02*
X100831D01*
X98292D01*
Y415793D01*
X95753Y413254D01*
X123684Y400558D02*
Y415793D01*
X131302D01*
X133841Y413254D01*
Y408176D01*
X131302Y405636D01*
X123684D01*
X138919Y415793D02*
X143997D01*
X141458D01*
Y400558D01*
X138919D01*
X143997D01*
X151615D02*
Y415793D01*
X161772Y400558D01*
Y415793D01*
X177007Y413254D02*
X174468Y415793D01*
X169389D01*
X166850Y413254D01*
Y410715D01*
X169389Y408176D01*
X174468D01*
X177007Y405636D01*
Y403097D01*
X174468Y400558D01*
X169389D01*
X166850Y403097D01*
D37*
X553720Y353060D02*
D03*
Y327660D02*
D03*
Y302260D02*
D03*
Y276860D02*
D03*
X78740Y312420D02*
D03*
D38*
X553720Y251460D02*
D03*
X78740Y287020D02*
D03*
D39*
X609600Y31750D02*
D03*
Y438150D02*
D03*
X76200D02*
D03*
Y31750D02*
D03*
D40*
X654050D02*
D03*
Y438150D02*
D03*
X31750D02*
D03*
Y31750D02*
D03*
D41*
X121920Y325120D02*
D03*
X201930Y182880D02*
D03*
X254000Y349250D02*
D03*
X320040Y97790D02*
D03*
X279400Y254000D02*
D03*
X582930Y302260D02*
D03*
M02*
