G04*
G04 #@! TF.GenerationSoftware,Altium Limited,Altium Designer,24.6.1 (21)*
G04*
G04 Layer_Color=16711935*
%FSLAX44Y44*%
%MOMM*%
G71*
G04*
G04 #@! TF.SameCoordinates,4D0109AF-B27D-4A28-B854-C6E4DC42B7D3*
G04*
G04*
G04 #@! TF.FilePolarity,Negative*
G04*
G01*
G75*
%ADD27C,1.7532*%
%ADD28R,1.7532X1.7532*%
%ADD29C,1.2000*%
%ADD30R,1.2000X1.2000*%
%ADD31C,2.0320*%
%ADD32C,3.3782*%
%ADD33C,1.7780*%
D27*
X553720Y353060D02*
D03*
Y327660D02*
D03*
Y302260D02*
D03*
Y276860D02*
D03*
X78740Y312420D02*
D03*
D28*
X553720Y251460D02*
D03*
X78740Y287020D02*
D03*
D29*
X250190Y254000D02*
D03*
X173930Y222250D02*
D03*
D30*
Y254000D02*
D03*
X250190Y222250D02*
D03*
D31*
X609600Y31750D02*
D03*
Y438150D02*
D03*
X76200D02*
D03*
Y31750D02*
D03*
D32*
X654050D02*
D03*
Y438150D02*
D03*
X31750D02*
D03*
Y31750D02*
D03*
D33*
X121920Y325120D02*
D03*
X201930Y182880D02*
D03*
X254000Y349250D02*
D03*
X320040Y97790D02*
D03*
X279400Y254000D02*
D03*
X582930Y302260D02*
D03*
M02*
