G04*
G04 #@! TF.GenerationSoftware,Altium Limited,Altium Designer,24.6.1 (21)*
G04*
G04 Layer_Color=65535*
%FSLAX44Y44*%
%MOMM*%
G71*
G04*
G04 #@! TF.SameCoordinates,4D0109AF-B27D-4A28-B854-C6E4DC42B7D3*
G04*
G04*
G04 #@! TF.FilePolarity,Positive*
G04*
G01*
G75*
%ADD10C,0.2500*%
%ADD11C,0.2000*%
%ADD12C,0.2540*%
D10*
X282640Y320610D02*
G03*
X282640Y320610I-1250J0D01*
G01*
X305940Y266330D02*
G03*
X305940Y266330I-1250J0D01*
G01*
X223500Y184210D02*
G03*
X223500Y184210I-1250J0D01*
G01*
D11*
X568920Y234960D02*
Y369560D01*
Y234960D02*
X654020D01*
Y369560D01*
X568920D02*
X654020D01*
X66690Y328920D02*
X90790D01*
Y270520D02*
Y328920D01*
X66690Y270520D02*
X90790D01*
X66690D02*
Y328920D01*
X398780Y364110D02*
Y370110D01*
X395780Y367110D02*
X401780D01*
X407780Y338110D02*
Y342610D01*
X389780Y338110D02*
Y342610D01*
X261370Y363800D02*
X261870D01*
X261370Y372800D02*
X261870D01*
X124718Y292612D02*
X139442D01*
X124718Y278888D02*
X139442D01*
X449751Y322489D02*
Y350611D01*
X431629Y322489D02*
Y350611D01*
X361051Y80650D02*
X373009D01*
X361051Y97150D02*
X373009D01*
X388041Y126101D02*
Y138059D01*
X371419Y126101D02*
Y138059D01*
X474080Y337070D02*
Y338570D01*
X488580Y337070D02*
Y338570D01*
X234860Y254000D02*
X238860D01*
X185260D02*
X189260D01*
X197060Y245450D02*
Y262550D01*
X189260Y244450D02*
Y263550D01*
Y244450D02*
X234860D01*
Y263550D01*
X189260D02*
X234860D01*
X277890Y307110D02*
Y310110D01*
X247890Y307110D02*
Y310110D01*
X277890D01*
X247890Y307110D02*
X277890D01*
X307740Y282830D02*
X357740D01*
X307740Y298830D02*
X357740D01*
X307740Y282830D02*
Y298830D01*
X357740Y282830D02*
Y298830D01*
X398780Y245540D02*
Y251540D01*
X395780Y248540D02*
X401780D01*
X389780Y273040D02*
Y277540D01*
X407780Y273040D02*
Y277540D01*
X431629Y265339D02*
Y293461D01*
X449751Y265339D02*
Y293461D01*
X488580Y278650D02*
Y280150D01*
X474080Y278650D02*
Y280150D01*
X284480Y155530D02*
Y161530D01*
X281480Y158530D02*
X287480D01*
X293480Y129530D02*
Y134030D01*
X275480Y129530D02*
Y134030D01*
X325291Y120559D02*
Y148681D01*
X307169Y120559D02*
Y148681D01*
X339460Y137680D02*
Y139180D01*
X353960Y137680D02*
Y139180D01*
X185260Y222250D02*
X189260D01*
X234860D02*
X238860D01*
X227060Y213700D02*
Y230800D01*
X234860Y212700D02*
Y231800D01*
X189260D02*
X234860D01*
X189260Y212700D02*
Y231800D01*
Y212700D02*
X234860D01*
X229578Y192528D02*
X244303D01*
X229578Y206252D02*
X244303D01*
X195068Y153928D02*
Y168652D01*
X208792Y153928D02*
Y168652D01*
X232750Y180710D02*
X235750D01*
X232750Y150710D02*
X235750D01*
X232750D02*
Y180710D01*
X235750Y150710D02*
Y180710D01*
D12*
X605791Y391157D02*
X600713D01*
X603252D01*
Y378462D01*
X600713Y375923D01*
X598173D01*
X595634Y378462D01*
X621026Y375923D02*
X610869D01*
X621026Y386079D01*
Y388618D01*
X618487Y391157D01*
X613408D01*
X610869Y388618D01*
X76200Y262887D02*
X71122D01*
X73661D01*
Y250192D01*
X71122Y247652D01*
X68583D01*
X66043Y250192D01*
X81278Y247652D02*
X86357D01*
X83818D01*
Y262887D01*
X81278Y260348D01*
X398781Y387348D02*
X396242Y389888D01*
X391163D01*
X388624Y387348D01*
Y377192D01*
X391163Y374652D01*
X396242D01*
X398781Y377192D01*
X403859Y389888D02*
X414016D01*
Y387348D01*
X403859Y377192D01*
Y374652D01*
X251463Y381003D02*
Y396237D01*
X259081D01*
X261620Y393698D01*
Y388620D01*
X259081Y386081D01*
X251463D01*
X256542D02*
X261620Y381003D01*
X269238D02*
Y393698D01*
Y388620D01*
X266698D01*
X271777D01*
X269238D01*
Y393698D01*
X271777Y396237D01*
X151136Y278132D02*
Y293368D01*
X158754D01*
X161293Y290828D01*
Y285750D01*
X158754Y283211D01*
X151136D01*
X156215D02*
X161293Y278132D01*
X166371D02*
X171450D01*
X168910D01*
Y288289D01*
X166371D01*
X179067Y278132D02*
Y288289D01*
X186685D01*
X189224Y285750D01*
Y278132D01*
X439421Y387348D02*
X436882Y389888D01*
X431803D01*
X429264Y387348D01*
Y377192D01*
X431803Y374652D01*
X436882D01*
X439421Y377192D01*
X444499Y387348D02*
X447038Y389888D01*
X452117D01*
X454656Y387348D01*
Y384809D01*
X452117Y382270D01*
X454656Y379731D01*
Y377192D01*
X452117Y374652D01*
X447038D01*
X444499Y377192D01*
Y379731D01*
X447038Y382270D01*
X444499Y384809D01*
Y387348D01*
X447038Y382270D02*
X452117D01*
X397514Y81283D02*
Y96517D01*
X405132D01*
X407671Y93978D01*
Y88900D01*
X405132Y86361D01*
X397514D01*
X402593D02*
X407671Y81283D01*
X420367D02*
Y96517D01*
X412749Y88900D01*
X422906D01*
X397514Y110492D02*
Y125728D01*
X405132D01*
X407671Y123188D01*
Y118110D01*
X405132Y115571D01*
X397514D01*
X402593D02*
X407671Y110492D01*
X412749Y123188D02*
X415288Y125728D01*
X420367D01*
X422906Y123188D01*
Y120649D01*
X420367Y118110D01*
X417827D01*
X420367D01*
X422906Y115571D01*
Y113032D01*
X420367Y110492D01*
X415288D01*
X412749Y113032D01*
X478791Y387348D02*
X476252Y389888D01*
X471173D01*
X468634Y387348D01*
Y377192D01*
X471173Y374652D01*
X476252D01*
X478791Y377192D01*
X483869D02*
X486408Y374652D01*
X491487D01*
X494026Y377192D01*
Y387348D01*
X491487Y389888D01*
X486408D01*
X483869Y387348D01*
Y384809D01*
X486408Y382270D01*
X494026D01*
X135894Y261618D02*
Y246383D01*
X143512D01*
X146051Y248922D01*
Y259078D01*
X143512Y261618D01*
X135894D01*
X161286Y246383D02*
X151129D01*
X161286Y256539D01*
Y259078D01*
X158747Y261618D01*
X153668D01*
X151129Y259078D01*
X214634Y316227D02*
Y303532D01*
X217173Y300993D01*
X222252D01*
X224791Y303532D01*
Y316227D01*
X240026Y300993D02*
X229869D01*
X240026Y311149D01*
Y313688D01*
X237487Y316227D01*
X232408D01*
X229869Y313688D01*
X320044Y353058D02*
Y340362D01*
X322583Y337822D01*
X327662D01*
X330201Y340362D01*
Y353058D01*
X335279Y350518D02*
X337818Y353058D01*
X342897D01*
X345436Y350518D01*
Y347979D01*
X342897Y345440D01*
X340358D01*
X342897D01*
X345436Y342901D01*
Y340362D01*
X342897Y337822D01*
X337818D01*
X335279Y340362D01*
X398780Y238758D02*
X396241Y241297D01*
X391162D01*
X388623Y238758D01*
Y228602D01*
X391162Y226063D01*
X396241D01*
X398780Y228602D01*
X403858Y226063D02*
X408937D01*
X406398D01*
Y241297D01*
X403858Y238758D01*
X438151D02*
X435612Y241297D01*
X430533D01*
X427994Y238758D01*
Y228602D01*
X430533Y226063D01*
X435612D01*
X438151Y228602D01*
X453386Y226063D02*
X443229D01*
X453386Y236219D01*
Y238758D01*
X450847Y241297D01*
X445768D01*
X443229Y238758D01*
X478791D02*
X476252Y241297D01*
X471173D01*
X468634Y238758D01*
Y228602D01*
X471173Y226063D01*
X476252D01*
X478791Y228602D01*
X483869Y238758D02*
X486408Y241297D01*
X491487D01*
X494026Y238758D01*
Y236219D01*
X491487Y233680D01*
X488947D01*
X491487D01*
X494026Y231141D01*
Y228602D01*
X491487Y226063D01*
X486408D01*
X483869Y228602D01*
X281941Y179068D02*
X279402Y181607D01*
X274323D01*
X271784Y179068D01*
Y168912D01*
X274323Y166373D01*
X279402D01*
X281941Y168912D01*
X294637Y166373D02*
Y181607D01*
X287019Y173990D01*
X297176D01*
X314961Y179068D02*
X312422Y181607D01*
X307343D01*
X304804Y179068D01*
Y168912D01*
X307343Y166373D01*
X312422D01*
X314961Y168912D01*
X330196Y181607D02*
X320039D01*
Y173990D01*
X325117Y176529D01*
X327657D01*
X330196Y173990D01*
Y168912D01*
X327657Y166373D01*
X322578D01*
X320039Y168912D01*
X347981Y179068D02*
X345442Y181607D01*
X340363D01*
X337824Y179068D01*
Y168912D01*
X340363Y166373D01*
X345442D01*
X347981Y168912D01*
X363216Y181607D02*
X358138Y179068D01*
X353059Y173990D01*
Y168912D01*
X355598Y166373D01*
X360677D01*
X363216Y168912D01*
Y171451D01*
X360677Y173990D01*
X353059D01*
X135893Y229867D02*
Y214632D01*
X143511D01*
X146050Y217172D01*
Y227328D01*
X143511Y229867D01*
X135893D01*
X151128Y214632D02*
X156207D01*
X153668D01*
Y229867D01*
X151128Y227328D01*
X251463Y191772D02*
Y207008D01*
X259081D01*
X261620Y204468D01*
Y199390D01*
X259081Y196851D01*
X251463D01*
X256542D02*
X261620Y191772D01*
X266698D02*
X271777D01*
X269238D01*
Y207008D01*
X266698Y204468D01*
X162564Y153673D02*
Y168908D01*
X170182D01*
X172721Y166368D01*
Y161290D01*
X170182Y158751D01*
X162564D01*
X167642D02*
X172721Y153673D01*
X187956D02*
X177799D01*
X187956Y163829D01*
Y166368D01*
X185417Y168908D01*
X180338D01*
X177799Y166368D01*
X223523Y143507D02*
Y130812D01*
X226063Y128272D01*
X231141D01*
X233680Y130812D01*
Y143507D01*
X238758Y128272D02*
X243837D01*
X241298D01*
Y143507D01*
X238758Y140968D01*
M02*
