M48
;Layer_Color=9474304
;FILE_FORMAT=4:4
METRIC,LZ
;TYPE=PLATED
T01F00S00C0.7112
T02F00S00C0.7620
T03F00S00C1.5240
%
T01
X00271526Y0018796
X0015748Y00375158
Y00396367
Y00416687
Y00436499
T02
X002794Y000254
X003048
X003302
X003556
X00381
X004064
X004318
X004572
X00508
X005334
X005588
X005842
X006096
X00635
Y00508
X006096
X005842
X005588
X005334
X00508
X004826
X004572
X0041656
X0039116
X0036576
X0034036
X0031496
X0028956
X0026416
X0023876
X0021336
X0018796
T03
X00052324Y00197485
Y00250444
M30
