M48
;Layer_Color=9474304
;FILE_FORMAT=4:4
METRIC,LZ
;TYPE=PLATED
T01F00S00C0.6096
T02F00S00C0.7000
T03F00S00C1.0200
T04F00S00C3.1750
%
T01
X0020193Y0018288
X002794Y00254
X0032004Y0009779
X0012192Y0032512
X00254Y0034925
X0058293Y0030226
T02
X0025019Y0022225
Y00254
X0017393
Y0022225
T03
X0055372Y0025146
Y0027686
X0007874Y0028702
Y0031242
X0055372Y0030226
Y0032766
Y0035306
T04
X0065405Y0003175
X0003175
Y0043815
X0065405
M30
